<svg width="16" height="20" viewBox="0 0 16 20" fill="none" xmlns="http://www.w3.org/2000/svg">
<path d="M15.7639 15.7291C15.7639 17.6933 14.1656 19.2916 12.2014 19.2916H3.79858C1.83434 19.2916 0.236084 17.6933 0.236084 15.7291V4.27075C0.236084 2.30651 1.83434 0.708252 3.79858 0.708252H6.09025C6.37012 0.708252 6.59719 0.935327 6.59719 1.2152C6.59719 1.49507 6.37012 1.72214 6.09025 1.72214H3.79858C2.39331 1.72214 1.24997 2.86548 1.24997 4.27075V15.7291C1.24997 17.1344 2.39331 18.2777 3.79858 18.2777H12.2014C13.6066 18.2777 14.75 17.1344 14.75 15.7291V4.27075C14.75 3.36366 14.2613 2.51726 13.4757 2.06289L15.7639 15.7291ZM15.7639 15.7291V4.27075M15.7639 15.7291V4.27075M15.7639 4.27075C15.7639 3.00253 15.0825 1.82091 13.9838 1.18587C13.74 1.04292 13.4297 1.12854 13.2909 1.37046M15.7639 4.27075L13.2909 1.37046M13.2909 1.37046C13.1501 1.61289 13.2334 1.92297 13.4756 2.06285L13.2909 1.37046ZM3.79858 15.2221C3.51871 15.2221 3.29164 15.4492 3.29164 15.7291C3.29164 16.009 3.51871 16.236 3.79858 16.236H12.2014C12.4812 16.236 12.7083 16.009 12.7083 15.7291C12.7083 15.4492 12.4812 15.2221 12.2014 15.2221H3.79858ZM3.79858 12.9305C3.51871 12.9305 3.29164 13.1575 3.29164 13.4374C3.29164 13.7173 3.51871 13.9444 3.79858 13.9444H12.2014C12.4812 13.9444 12.7083 13.7173 12.7083 13.4374C12.7083 13.1575 12.4812 12.9305 12.2014 12.9305H3.79858ZM7.61803 9.36103C7.8979 9.36103 8.12497 9.13395 8.12497 8.85408V3.50686C8.12497 2.52326 8.92609 1.72214 9.90969 1.72214C10.8933 1.72214 11.6944 2.52326 11.6944 3.50686V9.99992C11.6944 10.3518 11.4074 10.6388 11.0555 10.6388C10.7037 10.6388 10.4166 10.3518 10.4166 9.99992V3.50686C10.4166 3.22699 10.1896 2.99992 9.90969 2.99992C9.62983 2.99992 9.40275 3.22699 9.40275 3.50686V9.99992C9.40275 10.9115 10.1439 11.6527 11.0555 11.6527C11.9671 11.6527 12.7083 10.9115 12.7083 9.99992V3.50686C12.7083 1.96352 11.453 0.708252 9.90969 0.708252C8.36635 0.708252 7.11108 1.96352 7.11108 3.50686V8.85408C7.11108 9.13395 7.33816 9.36103 7.61803 9.36103ZM3.79858 11.6527H7.61803C7.8979 11.6527 8.12497 11.4256 8.12497 11.1458C8.12497 10.8659 7.8979 10.6388 7.61803 10.6388H3.79858C3.51872 10.6388 3.29164 10.8659 3.29164 11.1458C3.29164 11.4256 3.51871 11.6527 3.79858 11.6527Z" fill="#404040" stroke="#404040" stroke-width="0.25"/>
</svg>
